# xmcd CD database file
# Copyright (C) 1993-2000  Ti Kan
#
# Track frame offsets:
#	150
#	11187
#	22080
#	31037
#	42230
#	51977
#	62242
#	72787
#	80515
#	90465
#	99630
#	107737
#	117542
#	125645
#	135650
#	144062
#	155845
#	164380
#	176427
#	185250
#
# Disc length: 2618 seconds
#
# Revision: 2
# Processed by: cddbd v1.4PL0 Copyright (c) Steve Scherf et al.
# Submitted via: xmcd 2.6 PL0
#
DISCID=140a3814
DTITLE=Johnny Cash - Johnny Cash Sings the Country Classics
DYEAR=1900
DGENRE=
TTITLE0=I Love You Because
TTITLE1=I Heard That Lonesome Whistle Blow
TTITLE2=Remember Me
TTITLE3=Oh, Lonesome Me
TTITLE4=Born to Lose
TTITLE5=You Win Again
TTITLE6=Cold, Cold Heard
TTITLE7=Hey Good Lookin'
TTITLE8=I Could Never Be Ashames of You
TTITLE9=I Couldn't Keep From Crying
TTITLE10=The Wreck of the Old '97
TTITLE11=Rock Island Line
TTITLE12=Sugartime
TTITLE13=Goodbye Little Darlin'
TTITLE14=Country Boy
TTITLE15=Doin' My Time
TTITLE16=Forgot To Remember To Forget
TTITLE17=You're the Nearest Thing to Heaven
TTITLE18=Two Timin' Woman
TTITLE19=Mean Eyed Cat
EXTD=
EXTT0=
EXTT1=
EXTT2=
EXTT3=
EXTT4=
EXTT5=
EXTT6=
EXTT7=
EXTT8=
EXTT9=
EXTT10=
EXTT11=
EXTT12=
EXTT13=
EXTT14=
EXTT15=
EXTT16=
EXTT17=
EXTT18=
EXTT19=
PLAYORDER=
